HIERARCHY
ROOT Hips
{
	OFFSET 0.000000 0.000000 0.000000 
	CHANNELS 6 Xposition Yposition Zposition Yrotation Zrotation Xrotation 
	JOINT Lumbar
	{
		OFFSET 0.000000 0.000000 0.000000 
		CHANNELS 3 Zrotation Xrotation Yrotation
		JOINT Neck
		{
			OFFSET 0.000000 0.445665 0.000000 
			CHANNELS 3 Zrotation Xrotation Yrotation
			End Site
			{
				OFFSET 0.000000 0.227535 0.000000 
			}
		}
		JOINT RightShoulder
		{
			OFFSET 0.019635 0.377685 0.194865 
			CHANNELS 3 Zrotation Xrotation Yrotation
			JOINT RightElbow
			{
				OFFSET 0.000000 -0.243375 0.000000 
				CHANNELS 2 Zrotation Yrotation
				JOINT RightWrist
				{
					OFFSET 0.000000 -0.264825 0.000000 
					CHANNELS 2 Zrotation Xrotation
					End Site
					{
						OFFSET 0.006600 -0.176220 0.000990 
					}
				}
			}
		}
		JOINT LeftShoulder
		{
			OFFSET 0.019635 0.377685 -0.194865 
			CHANNELS 3 Zrotation Xrotation Yrotation
			JOINT LeftElbow
			{
				OFFSET 0.000000 -0.243375 0.000000 
				CHANNELS 2 Zrotation Yrotation
				JOINT LeftWrist
				{
					OFFSET 0.000000 -0.264825 0.000000 
					CHANNELS 2 Zrotation Xrotation
					End Site
					{
						OFFSET 0.006600 -0.176220 -0.000990 
					}
				}
			}
		}
	}
	JOINT RightHip
	{
		OFFSET 0.052140 -0.069960 0.075570 
		CHANNELS 3 Zrotation Xrotation Yrotation
		JOINT RightKnee
		{
			OFFSET 0.000000 -0.402270 0.000000 
			CHANNELS 1 Zrotation
			JOINT RightAnkle
			{
				OFFSET 0.000000 -0.404085 0.000000 
				CHANNELS 3 Zrotation Xrotation Yrotation
				End Site
				{
					OFFSET 0.204105 -0.089430 0.008415 
				}
			}
		}
	}
	JOINT LeftHip
	{
		OFFSET 0.052140 -0.069960 -0.075570 
		CHANNELS 3 Zrotation Xrotation Yrotation
		JOINT LeftKnee
		{
			OFFSET 0.000000 -0.402270 0.000000 
			CHANNELS 1 Zrotation
			JOINT LeftAnkle
			{
				OFFSET 0.000000 -0.404085 0.000000 
				CHANNELS 3 Zrotation Xrotation Yrotation
				End Site
				{
					OFFSET 0.204105 -0.089430 -0.008415 
				}
			}
		}
	}
}
MOTION
Frames: 25
Frame Time: 0.02
0.00034 0.00029 -0.00014 177.95419 -42.51511 -1.31433 55.5837 0.70389 -0.20009 -6.8324 -1.84476 -1.11819 135.89562 -79.0629 -70.196 9.38382 67.40968 0.94624 -8.04938 144.24175 75.83954 87.13758 7.47351 -69.94418 1.25656 11.03201 48.30407 0.71474 -14.08078 -19.99527 -6.45564 -3.60696 -3.95926 52.80112 2.15858 7.56769 -24.21478 -7.83615 3.46578 3.97452
-8e-05 0.00021 -1e-05 177.8885 -42.58315 -1.24312 55.58959 0.67697 -0.16349 -6.81142 -1.8169 -1.11908 136.07607 -79.02652 -69.98787 9.36367 67.47164 0.93885 -8.03911 144.72384 75.82595 87.13507 7.4913 -69.87488 1.40286 10.98046 48.37379 0.6169 -14.18326 -19.95813 -6.48841 -3.57986 -3.94962 52.82233 2.17407 7.98128 -24.21171 -7.80729 3.43843 3.95992
-0.0005 0.00014 0.00011 177.82292 -42.65103 -1.17208 55.59547 0.65014 -0.12697 -6.79049 -1.78912 -1.11996 136.25604 -78.99022 -69.78051 9.34356 67.53339 0.9315 -8.02884 145.20481 75.81241 87.13258 7.50903 -69.80565 1.54874 10.92901 48.44334 0.51935 -14.2851 -19.92112 -6.52111 -3.55285 -3.94003 52.84344 2.1895 8.39383 -24.20865 -7.7785 3.41115 3.94536
-0.00092 6e-05 0.00024 177.75742 -42.71887 -1.10108 55.60135 0.6233 -0.09048 -6.76958 -1.76135 -1.12084 136.43594 -78.95394 -69.57307 9.32347 67.59516 0.92414 -8.0186 145.68551 75.79886 87.13008 7.52676 -69.73654 1.6946 10.87761 48.51285 0.42182 -14.3872 -19.8841 -6.55379 -3.52584 -3.93043 52.86458 2.20494 8.80617 -24.20558 -7.74973 3.38388 3.93081
-0.00134 -2e-05 0.00037 177.69187 -42.78687 -1.02993 55.60724 0.59639 -0.05393 -6.7486 -1.7335 -1.12172 136.6163 -78.91759 -69.36475 9.30336 67.65713 0.91671 -8.00837 146.16712 75.78526 87.12758 7.54457 -69.66743 1.84084 10.82613 48.58251 0.324 -14.4901 -19.84694 -6.58651 -3.49873 -3.92079 52.88583 2.22043 9.21949 -24.2025 -7.72091 3.35655 3.91622
-0.00176 -0.0001 0.00049 177.62621 -42.85449 -0.95913 55.61307 0.56972 -0.01746 -6.72779 -1.70585 -1.12261 136.79546 -78.8814 -69.15937 9.28326 67.71844 0.90954 -7.99801 146.64666 75.77185 87.1251 7.56212 -69.59797 1.98596 10.77477 48.65182 0.22701 -14.5897 -19.81026 -6.61917 -3.47194 -3.9113 52.90665 2.23575 9.6304 -24.19947 -7.69219 3.32937 3.90171
-0.00217 -0.00018 0.00062 177.56082 -42.92278 -0.88771 55.61903 0.5426 0.01913 -6.70669 -1.67784 -1.12349 136.97678 -78.84494 -68.94849 9.26313 67.78098 0.90186 -7.9879 147.13001 75.75807 87.12258 7.58017 -69.52926 2.13321 10.7232 48.72178 0.12848 -14.69576 -19.77265 -6.65192 -3.44455 -3.90151 52.92832 2.25139 10.04565 -24.19634 -7.66329 3.30191 3.88706
-0.00259 -0.00026 0.00074 177.49524 -42.99047 -0.81685 55.62488 0.51589 0.05558 -6.68583 -1.65016 -1.12437 137.15624 -78.80872 -68.74236 9.24306 67.84245 0.89464 -7.9776 147.60956 75.74463 87.1201 7.59776 -69.4599 2.27843 10.67186 48.79111 0.03133 -14.79599 -19.73588 -6.68459 -3.4177 -3.89199 52.9492 2.26674 10.457 -24.19331 -7.63455 3.27471 3.87254
-0.00301 -0.00034 0.00087 177.42916 -43.05741 -0.74667 55.63057 0.48969 0.09199 -6.66533 -1.62287 -1.12525 137.33298 -78.77279 -68.54324 9.22296 67.90239 0.88805 -7.96693 148.08586 75.73161 87.11767 7.61479 -69.3895 2.42147 10.62063 48.85982 -0.06403 -14.88856 -19.70021 -6.71716 -3.39156 -3.88282 52.96913 2.28171 10.86339 -24.19039 -7.60601 3.24783 3.8582
-0.00341 -0.00042 0.001 177.36516 -43.12863 -0.67257 55.63706 0.46056 0.12905 -6.64295 -1.59331 -1.12613 137.52402 -78.7352 -68.30738 9.20272 67.97048 0.87803 -7.95798 148.58507 75.71619 87.11492 7.63506 -69.32437 2.57796 10.56826 48.93253 -0.16939 -15.02358 -19.65845 -6.75033 -3.36146 -3.87172 52.9946 2.2988 11.29777 -24.18679 -7.57636 3.21913 3.84286
-0.00387 -0.0005 0.00111 177.29729 -43.19081 -0.60673 55.64193 0.43764 0.16448 -6.62443 -1.56854 -1.12702 137.68573 -78.70109 -68.14674 9.18295 68.02179 0.87512 -7.94566 149.03317 75.70582 87.11286 7.64845 -69.24859 2.7055 10.51864 48.99654 -0.25383 -15.07013 -19.62939 -6.78219 -3.33965 -3.86464 53.00831 2.31146 11.67337 -24.18466 -7.54902 3.19424 3.8296
-0.00448 -0.00058 0.00118 177.21421 -43.22813 -0.5638 55.64172 0.43153 0.19743 -6.61763 -1.55718 -1.12795 137.75939 -78.67674 -68.21378 9.16285 68.02304 0.89315 -7.92176 149.36238 75.70973 87.11264 7.64293 -69.13927 2.75747 10.47348 49.03866 -0.27886 -14.86273 -19.63662 -6.81085 -3.3412 -3.86914 52.99008 2.31147 11.88322 -24.18631 -7.52824 3.18033 3.82228
-0.00516 -0.00067 0.00124 177.12809 -43.2564 -0.52911 55.63998 0.43174 0.2284 -6.61452 -1.55069 -1.12888 137.80491 -78.65589 -68.35261 9.14343 68.00814 0.91809 -7.89478 149.63603 75.71873 87.1131 7.63041 -69.01995 2.77953 10.4315 49.07167 -0.28328 -14.56875 -19.65634 -6.8381 -3.35095 -3.87757 52.95998 2.30705 12.03439 -24.18947 -7.50976 3.17021 3.817
-0.00582 -0.00075 0.0013 177.04638 -43.28886 -0.49049 55.63933 0.42913 0.2589 -6.60901 -1.54161 -1.12979 137.86841 -78.63325 -68.44442 9.12482 68.00326 0.93892 -7.87092 149.92149 75.72504 87.1133 7.62121 -68.90815 2.81293 10.39022 49.10758 -0.29841 -14.32148 -19.66936 -6.86577 -3.35655 -3.88388 52.93509 2.30512 12.21591 -24.1921 -7.49006 3.15798 3.81059
-0.00644 -0.00083 0.00135 176.95191 -43.32098 -0.45265 55.63698 0.42612 0.29502 -6.60652 -1.53359 -1.13077 137.91037 -78.61126 -68.59628 9.10181 67.98714 0.96375 -7.8404 150.26469 75.7326 87.11336 7.61176 -68.78422 2.85633 10.34043 49.14879 -0.30774 -14.04221 -19.68667 -6.89448 -3.36397 -3.89165 52.91095 2.30154 12.38372 -24.19411 -7.47101 3.14721 3.80499
-0.00715 -0.00092 0.00142 176.88324 -43.35166 -0.41517 55.63784 0.42568 0.31917 -6.59868 -1.5252 -1.13163 137.98997 -78.58898 -68.64116 9.08774 67.99048 0.98203 -7.82228 150.47309 75.73918 87.11378 7.60073 -68.68261 2.87112 10.30846 49.17672 -0.32439 -13.80998 -19.69811 -6.92058 -3.3695 -3.89728 52.88246 2.29985 12.56374 -24.19773 -7.45127 3.13451 3.79828
-0.00805 -0.00101 0.00154 176.88722 -43.38049 -0.37655 55.6478 0.42892 0.30907 -6.57437 -1.50914 -1.1321 138.18474 -78.56307 -68.36409 9.10151 68.05255 0.97986 -7.84482 150.33023 75.73868 87.11498 7.5907 -68.65246 2.81929 10.32993 49.17091 -0.36499 -13.7211 -19.6893 -6.94075 -3.36832 -3.89619 52.84469 2.30904 12.81313 -24.20571 -7.4281 3.11387 3.78707
-0.00903 -0.00111 0.00168 176.91717 -43.40821 -0.33808 55.66107 0.43494 0.28738 -6.54456 -1.49385 -1.13248 138.41724 -78.5372 -67.97899 9.1237 68.13456 0.97133 -7.87853 150.04919 75.73783 87.11595 7.57856 -68.64551 2.73818 10.3678 49.15191 -0.41382 -13.68375 -19.67433 -6.9582 -3.36488 -3.89279 52.80298 2.31953 13.07313 -24.21522 -7.40432 3.09146 3.77484
-0.00998 -0.00121 0.00182 176.9348 -43.4365 -0.29955 55.67289 0.44084 0.27199 -6.51796 -1.48135 -1.13294 138.63 -78.51244 -67.64862 9.13976 68.20679 0.96574 -7.90381 149.83052 75.73887 87.11777 7.56512 -68.62086 2.66788 10.39555 49.13852 -0.45984 -13.62828 -19.66287 -6.97627 -3.3621 -3.89032 52.76322 2.32631 13.31402 -24.22384 -7.38147 3.07102 3.76371
-0.01091 -0.00131 0.00193 176.95449 -43.46418 -0.26106 55.68442 0.4419 0.25183 -6.48902 -1.4545 -1.13322 138.85399 -78.48257 -67.29504 9.16525 68.28156 0.9588 -7.94451 149.62438 75.73182 87.1188 7.56135 -68.61882 2.60943 10.43678 49.12651 -0.50153 -13.54857 -19.64889 -6.99683 -3.36105 -3.88846 52.72243 2.34573 13.61218 -24.23329 -7.356 3.04591 3.75002
-0.0119 -0.00141 0.0021 176.97612 -43.49298 -0.22269 55.69737 0.45395 0.23931 -6.46291 -1.45925 -1.13387 139.06234 -78.46391 -66.96561 9.17347 68.3559 0.95482 -7.95406 149.34414 75.7427 87.11848 7.53655 -68.5844 2.5168 10.45113 49.10853 -0.55405 -13.53127 -19.63846 -7.01165 -3.35589 -3.8848 52.68291 2.33965 13.79561 -24.24139 -7.33573 3.02989 3.7413
-0.01306 -0.00151 0.00237 176.99691 -43.52502 -0.18208 55.71331 0.49265 0.24735 -6.45208 -1.53763 -1.13552 139.22858 -78.47238 -66.71103 9.12844 68.42658 0.94662 -7.8886 148.98196 75.79884 87.12522 7.46003 -68.37319 2.36115 10.40925 49.07777 -0.63813 -13.68653 -19.64014 -7.01062 -3.3386 -3.87613 52.64862 2.25878 13.64848 -24.24522 -7.33074 3.04091 3.74738
-0.01428 -0.00162 0.00268 177.01907 -43.55817 -0.14199 55.73059 0.5428 0.26424 -6.44329 -1.65028 -1.13755 139.37379 -78.49369 -66.48924 9.06612 68.49692 0.94504 -7.78821 148.50091 75.87818 87.11863 7.36251 -68.14098 2.16712 10.33524 49.0413 -0.73225 -13.90092 -19.64551 -7.00404 -3.31748 -3.86584 52.61557 2.15295 13.38772 -24.24768 -7.33083 3.06082 3.75832
-0.01548 -0.00172 0.00298 177.04005 -43.59104 -0.10333 55.74738 0.58971 0.27909 -6.42929 -1.75603 -1.13943 139.52481 -78.51047 -66.26187 9.01434 68.56443 0.94841 -7.69563 148.05784 75.94419 87.12374 7.26938 -67.97568 1.97573 10.26195 49.00726 -0.81944 -14.08018 -19.64846 -7.00043 -3.29888 -3.85667 52.58162 2.06124 13.1868 -24.25083 -7.32807 3.07571 3.76651
-0.01666 -0.00182 0.00326 177.06288 -43.62333 -0.05774 55.76386 0.62863 0.28459 -6.43246 -1.82517 -1.14119 139.70203 -78.51813 -65.98438 8.95259 68.64044 0.91442 -7.64014 147.81204 76.0041 87.14595 7.19328 -67.58091 1.84835 10.24938 48.97384 -0.91682 -14.29582 -19.65387 -6.99482 -3.27678 -3.84576 52.54928 1.95792 12.95232 -24.25365 -7.32758 3.09478 3.77701
